<svg id="visual" viewBox="0 0 900 600" width="900" height="600" xmlns="http://www.w3.org/2000/svg" xmlns:xlink="http://www.w3.org/1999/xlink" version="1.1"><path d="M0 223L18.8 225C37.7 227 75.3 231 112.8 230C150.3 229 187.7 223 225.2 222C262.7 221 300.3 225 337.8 229C375.3 233 412.7 237 450.2 240C487.7 243 525.3 245 562.8 245C600.3 245 637.7 243 675.2 244C712.7 245 750.3 249 787.8 247C825.3 245 862.7 237 881.3 233L900 229L900 0L881.3 0C862.7 0 825.3 0 787.8 0C750.3 0 712.7 0 675.2 0C637.7 0 600.3 0 562.8 0C525.3 0 487.7 0 450.2 0C412.7 0 375.3 0 337.8 0C300.3 0 262.7 0 225.2 0C187.7 0 150.3 0 112.8 0C75.3 0 37.7 0 18.8 0L0 0Z" fill="#00214f"></path><path d="M0 451L18.8 453C37.7 455 75.3 459 112.8 459C150.3 459 187.7 455 225.2 456C262.7 457 300.3 463 337.8 466C375.3 469 412.7 469 450.2 469C487.7 469 525.3 469 562.8 469C600.3 469 637.7 469 675.2 467C712.7 465 750.3 461 787.8 461C825.3 461 862.7 465 881.3 467L900 469L900 227L881.3 231C862.7 235 825.3 243 787.8 245C750.3 247 712.7 243 675.2 242C637.7 241 600.3 243 562.8 243C525.3 243 487.7 241 450.2 238C412.7 235 375.3 231 337.8 227C300.3 223 262.7 219 225.2 220C187.7 221 150.3 227 112.8 228C75.3 229 37.7 225 18.8 223L0 221Z" fill="#002a6a"></path><path d="M0 601L18.8 601C37.7 601 75.3 601 112.8 601C150.3 601 187.7 601 225.2 601C262.7 601 300.3 601 337.8 601C375.3 601 412.7 601 450.2 601C487.7 601 525.3 601 562.8 601C600.3 601 637.7 601 675.2 601C712.7 601 750.3 601 787.8 601C825.3 601 862.7 601 881.3 601L900 601L900 467L881.3 465C862.7 463 825.3 459 787.8 459C750.3 459 712.7 463 675.2 465C637.7 467 600.3 467 562.8 467C525.3 467 487.7 467 450.2 467C412.7 467 375.3 467 337.8 464C300.3 461 262.7 455 225.2 454C187.7 453 150.3 457 112.8 457C75.3 457 37.7 453 18.8 451L0 449Z" fill="#214b99"></path></svg>