<svg id="visual" viewBox="0 0 960 540" width="960" height="540" xmlns="http://www.w3.org/2000/svg" xmlns:xlink="http://www.w3.org/1999/xlink" version="1.1"><g stroke-width="1" stroke-linejoin="bevel"><path d="M476 294L510 334L509 282Z" fill="#205a7a" stroke="#205a7a"></path><path d="M476 294L464 327L510 334Z" fill="#246688" stroke="#246688"></path><path d="M464 327L502 356L510 334Z" fill="#19435d" stroke="#19435d"></path><path d="M502 356L536 349L510 334Z" fill="#297ea6" stroke="#297ea6"></path><path d="M510 334L554 347L509 282Z" fill="#15384f" stroke="#15384f"></path><path d="M562 379L554 347L536 349Z" fill="#277297" stroke="#277297"></path><path d="M536 349L554 347L510 334Z" fill="#15384f" stroke="#15384f"></path><path d="M464 327L462 370L502 356Z" fill="#297ea6" stroke="#297ea6"></path><path d="M502 356L532 388L536 349Z" fill="#205a7a" stroke="#205a7a"></path><path d="M565 220L526 230L509 282Z" fill="#081a28" stroke="#081a28"></path><path d="M509 282L507 204L476 294Z" fill="#112e42" stroke="#112e42"></path><path d="M480 429L532 388L502 356Z" fill="#15384f" stroke="#15384f"></path><path d="M562 379L588 322L554 347Z" fill="#297ea6" stroke="#297ea6"></path><path d="M554 347L588 322L509 282Z" fill="#19435d" stroke="#19435d"></path><path d="M532 388L562 379L536 349Z" fill="#277297" stroke="#277297"></path><path d="M460 195L417 256L476 294Z" fill="#00101c" stroke="#00101c"></path><path d="M476 294L417 256L464 327Z" fill="#277297" stroke="#277297"></path><path d="M464 327L394 346L462 370Z" fill="#15384f" stroke="#15384f"></path><path d="M565 220L542 215L526 230Z" fill="#246688" stroke="#246688"></path><path d="M526 230L507 204L509 282Z" fill="#246688" stroke="#246688"></path><path d="M542 215L507 204L526 230Z" fill="#297ea6" stroke="#297ea6"></path><path d="M596 232L565 220L509 282Z" fill="#277297" stroke="#277297"></path><path d="M542 215L539 147L507 204Z" fill="#1d4e6b" stroke="#1d4e6b"></path><path d="M417 256L394 346L464 327Z" fill="#277297" stroke="#277297"></path><path d="M562 379L611 331L588 322Z" fill="#297ea6" stroke="#297ea6"></path><path d="M588 322L596 232L509 282Z" fill="#15384f" stroke="#15384f"></path><path d="M507 204L460 195L476 294Z" fill="#297ea6" stroke="#297ea6"></path><path d="M480 429L555 416L532 388Z" fill="#15384f" stroke="#15384f"></path><path d="M532 388L555 416L562 379Z" fill="#1d4e6b" stroke="#1d4e6b"></path><path d="M562 379L638 380L611 331Z" fill="#1d4e6b" stroke="#1d4e6b"></path><path d="M480 429L502 356L462 370Z" fill="#00101c" stroke="#00101c"></path><path d="M394 346L409 389L462 370Z" fill="#00101c" stroke="#00101c"></path><path d="M458 439L480 429L452 438Z" fill="#00101c" stroke="#00101c"></path><path d="M634 291L596 232L588 322Z" fill="#277297" stroke="#277297"></path><path d="M460 195L443 198L417 256Z" fill="#15384f" stroke="#15384f"></path><path d="M373 264L372 296L417 256Z" fill="#15384f" stroke="#15384f"></path><path d="M417 256L372 296L394 346Z" fill="#112e42" stroke="#112e42"></path><path d="M394 346L365 378L409 389Z" fill="#081a28" stroke="#081a28"></path><path d="M355 231L373 264L417 256Z" fill="#19435d" stroke="#19435d"></path><path d="M611 331L634 291L588 322Z" fill="#19435d" stroke="#19435d"></path><path d="M539 485L585 415L555 416Z" fill="#19435d" stroke="#19435d"></path><path d="M555 416L585 415L562 379Z" fill="#081a28" stroke="#081a28"></path><path d="M611 331L671 305L634 291Z" fill="#00101c" stroke="#00101c"></path><path d="M452 438L480 429L462 370Z" fill="#277297" stroke="#277297"></path><path d="M480 429L539 485L555 416Z" fill="#00101c" stroke="#00101c"></path><path d="M409 389L452 438L462 370Z" fill="#0c2435" stroke="#0c2435"></path><path d="M322 309L362 355L372 296Z" fill="#00101c" stroke="#00101c"></path><path d="M372 296L362 355L394 346Z" fill="#19435d" stroke="#19435d"></path><path d="M443 480L458 439L452 438Z" fill="#19435d" stroke="#19435d"></path><path d="M622 209L599 194L596 232Z" fill="#19435d" stroke="#19435d"></path><path d="M596 232L599 194L565 220Z" fill="#00101c" stroke="#00101c"></path><path d="M565 220L553 142L542 215Z" fill="#205a7a" stroke="#205a7a"></path><path d="M507 204L461 126L460 195Z" fill="#112e42" stroke="#112e42"></path><path d="M362 355L365 378L394 346Z" fill="#1d4e6b" stroke="#1d4e6b"></path><path d="M585 415L638 380L562 379Z" fill="#0c2435" stroke="#0c2435"></path><path d="M634 291L622 209L596 232Z" fill="#081a28" stroke="#081a28"></path><path d="M419 144L394 188L443 198Z" fill="#246688" stroke="#246688"></path><path d="M443 198L394 188L417 256Z" fill="#15384f" stroke="#15384f"></path><path d="M419 144L443 198L460 195Z" fill="#0c2435" stroke="#0c2435"></path><path d="M622 209L606 186L599 194Z" fill="#1d4e6b" stroke="#1d4e6b"></path><path d="M553 142L539 147L542 215Z" fill="#205a7a" stroke="#205a7a"></path><path d="M365 207L355 231L417 256Z" fill="#112e42" stroke="#112e42"></path><path d="M373 264L322 309L372 296Z" fill="#081a28" stroke="#081a28"></path><path d="M553 142L565 220L599 194Z" fill="#00101c" stroke="#00101c"></path><path d="M394 188L365 207L417 256Z" fill="#277297" stroke="#277297"></path><path d="M638 380L671 305L611 331Z" fill="#112e42" stroke="#112e42"></path><path d="M634 291L679 279L622 209Z" fill="#00101c" stroke="#00101c"></path><path d="M606 186L553 142L599 194Z" fill="#246688" stroke="#246688"></path><path d="M461 126L419 144L460 195Z" fill="#081a28" stroke="#081a28"></path><path d="M365 207L349 218L355 231Z" fill="#1d4e6b" stroke="#1d4e6b"></path><path d="M355 231L322 309L373 264Z" fill="#1d4e6b" stroke="#1d4e6b"></path><path d="M292 289L322 309L355 231Z" fill="#205a7a" stroke="#205a7a"></path><path d="M362 355L303 374L365 378Z" fill="#205a7a" stroke="#205a7a"></path><path d="M365 207L359 197L349 218Z" fill="#112e42" stroke="#112e42"></path><path d="M394 188L359 197L365 207Z" fill="#297ea6" stroke="#297ea6"></path><path d="M368 99L359 197L394 188Z" fill="#277297" stroke="#277297"></path><path d="M638 453L648 410L585 415Z" fill="#246688" stroke="#246688"></path><path d="M585 415L648 410L638 380Z" fill="#19435d" stroke="#19435d"></path><path d="M638 380L718 338L671 305Z" fill="#081a28" stroke="#081a28"></path><path d="M443 480L452 482L458 439Z" fill="#19435d" stroke="#19435d"></path><path d="M458 439L452 482L480 429Z" fill="#15384f" stroke="#15384f"></path><path d="M443 480L452 438L353 472Z" fill="#081a28" stroke="#081a28"></path><path d="M353 472L452 438L409 389Z" fill="#0c2435" stroke="#0c2435"></path><path d="M452 482L539 485L480 429Z" fill="#112e42" stroke="#112e42"></path><path d="M698 253L728 306L707 250Z" fill="#15384f" stroke="#15384f"></path><path d="M671 305L679 279L634 291Z" fill="#00101c" stroke="#00101c"></path><path d="M622 209L661 189L606 186Z" fill="#246688" stroke="#246688"></path><path d="M461 126L507 204L507 117Z" fill="#297ea6" stroke="#297ea6"></path><path d="M507 117L507 204L539 147Z" fill="#0c2435" stroke="#0c2435"></path><path d="M514 108L507 117L539 147Z" fill="#0c2435" stroke="#0c2435"></path><path d="M446 113L431 121L461 126Z" fill="#15384f" stroke="#15384f"></path><path d="M461 126L431 121L419 144Z" fill="#0c2435" stroke="#0c2435"></path><path d="M324 114L303 172L359 197Z" fill="#297ea6" stroke="#297ea6"></path><path d="M602 489L638 453L585 415Z" fill="#1d4e6b" stroke="#1d4e6b"></path><path d="M698 253L679 279L728 306Z" fill="#0c2435" stroke="#0c2435"></path><path d="M682 214L661 189L622 209Z" fill="#1d4e6b" stroke="#1d4e6b"></path><path d="M606 186L635 95L553 142Z" fill="#00101c" stroke="#00101c"></path><path d="M553 142L514 108L539 147Z" fill="#081a28" stroke="#081a28"></path><path d="M514 108L489 108L507 117Z" fill="#205a7a" stroke="#205a7a"></path><path d="M507 117L489 108L461 126Z" fill="#19435d" stroke="#19435d"></path><path d="M602 83L514 108L553 142Z" fill="#297ea6" stroke="#297ea6"></path><path d="M489 108L446 113L461 126Z" fill="#0c2435" stroke="#0c2435"></path><path d="M679 279L682 214L622 209Z" fill="#246688" stroke="#246688"></path><path d="M679 279L671 305L728 306Z" fill="#297ea6" stroke="#297ea6"></path><path d="M679 279L698 253L682 214Z" fill="#15384f" stroke="#15384f"></path><path d="M322 309L303 374L362 355Z" fill="#297ea6" stroke="#297ea6"></path><path d="M365 378L353 472L409 389Z" fill="#15384f" stroke="#15384f"></path><path d="M541 523L602 489L539 485Z" fill="#1d4e6b" stroke="#1d4e6b"></path><path d="M539 485L602 489L585 415Z" fill="#0c2435" stroke="#0c2435"></path><path d="M292 289L355 231L277 248Z" fill="#0c2435" stroke="#0c2435"></path><path d="M280 275L292 289L277 248Z" fill="#00101c" stroke="#00101c"></path><path d="M264 348L272 364L303 374Z" fill="#19435d" stroke="#19435d"></path><path d="M696 403L638 380L648 410Z" fill="#112e42" stroke="#112e42"></path><path d="M698 253L710 239L682 214Z" fill="#1d4e6b" stroke="#1d4e6b"></path><path d="M698 433L648 410L638 453Z" fill="#081a28" stroke="#081a28"></path><path d="M698 433L696 403L648 410Z" fill="#15384f" stroke="#15384f"></path><path d="M499 540L539 485L452 482Z" fill="#297ea6" stroke="#297ea6"></path><path d="M499 540L541 523L539 485Z" fill="#1d4e6b" stroke="#1d4e6b"></path><path d="M314 473L353 472L365 378Z" fill="#277297" stroke="#277297"></path><path d="M443 480L439 540L452 482Z" fill="#15384f" stroke="#15384f"></path><path d="M696 403L718 338L638 380Z" fill="#15384f" stroke="#15384f"></path><path d="M787 243L710 239L707 250Z" fill="#19435d" stroke="#19435d"></path><path d="M707 250L710 239L698 253Z" fill="#112e42" stroke="#112e42"></path><path d="M701 139L655 130L661 189Z" fill="#112e42" stroke="#112e42"></path><path d="M277 248L355 231L349 218Z" fill="#246688" stroke="#246688"></path><path d="M264 348L303 374L322 309Z" fill="#246688" stroke="#246688"></path><path d="M277 248L349 218L303 172Z" fill="#081a28" stroke="#081a28"></path><path d="M718 338L728 306L671 305Z" fill="#15384f" stroke="#15384f"></path><path d="M353 472L395 513L443 480Z" fill="#246688" stroke="#246688"></path><path d="M303 172L349 218L359 197Z" fill="#277297" stroke="#277297"></path><path d="M277 248L275 252L280 275Z" fill="#297ea6" stroke="#297ea6"></path><path d="M439 540L499 540L452 482Z" fill="#0c2435" stroke="#0c2435"></path><path d="M728 445L698 433L736 461Z" fill="#277297" stroke="#277297"></path><path d="M696 403L726 418L718 338Z" fill="#1d4e6b" stroke="#1d4e6b"></path><path d="M718 338L752 301L728 306Z" fill="#081a28" stroke="#081a28"></path><path d="M264 348L292 289L250 345Z" fill="#081a28" stroke="#081a28"></path><path d="M264 348L322 309L292 289Z" fill="#0c2435" stroke="#0c2435"></path><path d="M314 473L335 486L353 472Z" fill="#246688" stroke="#246688"></path><path d="M701 139L661 189L682 214Z" fill="#19435d" stroke="#19435d"></path><path d="M661 189L655 130L606 186Z" fill="#277297" stroke="#277297"></path><path d="M499 540L547 540L541 523Z" fill="#0c2435" stroke="#0c2435"></path><path d="M541 523L567 540L602 489Z" fill="#112e42" stroke="#112e42"></path><path d="M602 489L658 524L638 453Z" fill="#297ea6" stroke="#297ea6"></path><path d="M250 345L292 289L280 275Z" fill="#277297" stroke="#277297"></path><path d="M386 96L419 144L431 121Z" fill="#0c2435" stroke="#0c2435"></path><path d="M368 99L394 188L419 144Z" fill="#297ea6" stroke="#297ea6"></path><path d="M277 248L240 259L275 252Z" fill="#1d4e6b" stroke="#1d4e6b"></path><path d="M395 513L439 540L443 480Z" fill="#246688" stroke="#246688"></path><path d="M417 70L431 121L446 113Z" fill="#19435d" stroke="#19435d"></path><path d="M417 70L386 96L431 121Z" fill="#15384f" stroke="#15384f"></path><path d="M417 70L446 113L474 48Z" fill="#081a28" stroke="#081a28"></path><path d="M547 540L567 540L541 523Z" fill="#297ea6" stroke="#297ea6"></path><path d="M567 540L604 527L602 489Z" fill="#0c2435" stroke="#0c2435"></path><path d="M353 472L335 486L395 513Z" fill="#15384f" stroke="#15384f"></path><path d="M395 513L373 540L439 540Z" fill="#081a28" stroke="#081a28"></path><path d="M314 473L365 378L303 374Z" fill="#246688" stroke="#246688"></path><path d="M250 345L268 387L272 364Z" fill="#081a28" stroke="#081a28"></path><path d="M272 364L268 387L303 374Z" fill="#15384f" stroke="#15384f"></path><path d="M386 96L368 99L419 144Z" fill="#277297" stroke="#277297"></path><path d="M635 95L602 83L553 142Z" fill="#297ea6" stroke="#297ea6"></path><path d="M474 48L446 113L489 108Z" fill="#205a7a" stroke="#205a7a"></path><path d="M269 414L314 473L303 374Z" fill="#246688" stroke="#246688"></path><path d="M655 130L635 95L606 186Z" fill="#246688" stroke="#246688"></path><path d="M716 78L643 102L655 130Z" fill="#19435d" stroke="#19435d"></path><path d="M728 445L726 418L698 433Z" fill="#1d4e6b" stroke="#1d4e6b"></path><path d="M698 433L726 418L696 403Z" fill="#15384f" stroke="#15384f"></path><path d="M474 48L489 108L514 108Z" fill="#297ea6" stroke="#297ea6"></path><path d="M386 96L342 54L368 99Z" fill="#246688" stroke="#246688"></path><path d="M795 380L752 301L718 338Z" fill="#112e42" stroke="#112e42"></path><path d="M728 306L752 301L707 250Z" fill="#297ea6" stroke="#297ea6"></path><path d="M745 194L701 139L682 214Z" fill="#205a7a" stroke="#205a7a"></path><path d="M643 102L635 95L655 130Z" fill="#297ea6" stroke="#297ea6"></path><path d="M240 259L250 345L280 275Z" fill="#277297" stroke="#277297"></path><path d="M264 348L250 345L272 364Z" fill="#1d4e6b" stroke="#1d4e6b"></path><path d="M226 412L269 414L268 387Z" fill="#246688" stroke="#246688"></path><path d="M268 387L269 414L303 374Z" fill="#246688" stroke="#246688"></path><path d="M567 540L606 540L604 527Z" fill="#246688" stroke="#246688"></path><path d="M604 527L658 524L602 489Z" fill="#1d4e6b" stroke="#1d4e6b"></path><path d="M611 64L603 73L602 83Z" fill="#246688" stroke="#246688"></path><path d="M602 83L558 45L514 108Z" fill="#19435d" stroke="#19435d"></path><path d="M512 20L474 48L514 108Z" fill="#081a28" stroke="#081a28"></path><path d="M342 54L324 114L368 99Z" fill="#1d4e6b" stroke="#1d4e6b"></path><path d="M368 99L324 114L359 197Z" fill="#19435d" stroke="#19435d"></path><path d="M745 194L682 214L710 239Z" fill="#297ea6" stroke="#297ea6"></path><path d="M643 102L644 84L635 95Z" fill="#15384f" stroke="#15384f"></path><path d="M635 95L611 64L602 83Z" fill="#081a28" stroke="#081a28"></path><path d="M298 540L373 540L335 486Z" fill="#00101c" stroke="#00101c"></path><path d="M335 486L373 540L395 513Z" fill="#19435d" stroke="#19435d"></path><path d="M249 184L240 259L277 248Z" fill="#15384f" stroke="#15384f"></path><path d="M275 252L240 259L280 275Z" fill="#19435d" stroke="#19435d"></path><path d="M249 184L277 248L303 172Z" fill="#205a7a" stroke="#205a7a"></path><path d="M314 473L310 493L335 486Z" fill="#15384f" stroke="#15384f"></path><path d="M226 460L310 493L314 473Z" fill="#0c2435" stroke="#0c2435"></path><path d="M681 511L698 433L638 453Z" fill="#205a7a" stroke="#205a7a"></path><path d="M726 418L768 399L718 338Z" fill="#246688" stroke="#246688"></path><path d="M716 78L644 84L643 102Z" fill="#0c2435" stroke="#0c2435"></path><path d="M324 114L279 158L303 172Z" fill="#081a28" stroke="#081a28"></path><path d="M606 540L658 524L604 527Z" fill="#00101c" stroke="#00101c"></path><path d="M644 84L611 64L635 95Z" fill="#00101c" stroke="#00101c"></path><path d="M603 73L558 45L602 83Z" fill="#19435d" stroke="#19435d"></path><path d="M611 64L558 45L603 73Z" fill="#0c2435" stroke="#0c2435"></path><path d="M787 243L745 194L710 239Z" fill="#1d4e6b" stroke="#1d4e6b"></path><path d="M658 524L681 511L638 453Z" fill="#297ea6" stroke="#297ea6"></path><path d="M474 48L403 46L417 70Z" fill="#0c2435" stroke="#0c2435"></path><path d="M417 70L403 46L386 96Z" fill="#081a28" stroke="#081a28"></path><path d="M444 0L403 46L474 48Z" fill="#1d4e6b" stroke="#1d4e6b"></path><path d="M268 124L249 184L279 158Z" fill="#15384f" stroke="#15384f"></path><path d="M279 158L249 184L303 172Z" fill="#246688" stroke="#246688"></path><path d="M681 511L736 461L698 433Z" fill="#081a28" stroke="#081a28"></path><path d="M780 427L768 399L726 418Z" fill="#00101c" stroke="#00101c"></path><path d="M780 427L726 418L728 445Z" fill="#081a28" stroke="#081a28"></path><path d="M752 301L787 243L707 250Z" fill="#0c2435" stroke="#0c2435"></path><path d="M681 511L738 464L736 461Z" fill="#246688" stroke="#246688"></path><path d="M736 461L780 427L728 445Z" fill="#081a28" stroke="#081a28"></path><path d="M566 0L512 20L558 45Z" fill="#297ea6" stroke="#297ea6"></path><path d="M558 45L512 20L514 108Z" fill="#297ea6" stroke="#297ea6"></path><path d="M342 54L288 110L324 114Z" fill="#246688" stroke="#246688"></path><path d="M324 114L288 110L279 158Z" fill="#112e42" stroke="#112e42"></path><path d="M658 524L677 540L681 511Z" fill="#0c2435" stroke="#0c2435"></path><path d="M681 511L744 540L738 464Z" fill="#205a7a" stroke="#205a7a"></path><path d="M606 540L677 540L658 524Z" fill="#081a28" stroke="#081a28"></path><path d="M250 345L226 412L268 387Z" fill="#246688" stroke="#246688"></path><path d="M269 414L226 460L314 473Z" fill="#205a7a" stroke="#205a7a"></path><path d="M213 419L226 412L152 360Z" fill="#0c2435" stroke="#0c2435"></path><path d="M821 309L787 243L752 301Z" fill="#0c2435" stroke="#0c2435"></path><path d="M745 194L752 119L701 139Z" fill="#297ea6" stroke="#297ea6"></path><path d="M288 110L268 124L279 158Z" fill="#15384f" stroke="#15384f"></path><path d="M403 46L342 54L386 96Z" fill="#297ea6" stroke="#297ea6"></path><path d="M288 110L251 62L268 124Z" fill="#15384f" stroke="#15384f"></path><path d="M347 0L342 54L403 46Z" fill="#0c2435" stroke="#0c2435"></path><path d="M780 427L795 380L768 399Z" fill="#081a28" stroke="#081a28"></path><path d="M768 399L795 380L718 338Z" fill="#277297" stroke="#277297"></path><path d="M738 464L780 427L736 461Z" fill="#081a28" stroke="#081a28"></path><path d="M786 502L780 427L738 464Z" fill="#277297" stroke="#277297"></path><path d="M270 540L298 540L310 493Z" fill="#0c2435" stroke="#0c2435"></path><path d="M310 493L298 540L335 486Z" fill="#1d4e6b" stroke="#1d4e6b"></path><path d="M152 360L226 412L250 345Z" fill="#277297" stroke="#277297"></path><path d="M226 412L215 435L269 414Z" fill="#1d4e6b" stroke="#1d4e6b"></path><path d="M192 285L250 345L240 259Z" fill="#00101c" stroke="#00101c"></path><path d="M170 269L240 259L173 210Z" fill="#00101c" stroke="#00101c"></path><path d="M170 269L192 285L240 259Z" fill="#00101c" stroke="#00101c"></path><path d="M181 458L215 435L213 419Z" fill="#15384f" stroke="#15384f"></path><path d="M213 419L215 435L226 412Z" fill="#1d4e6b" stroke="#1d4e6b"></path><path d="M215 435L226 460L269 414Z" fill="#246688" stroke="#246688"></path><path d="M512 20L444 0L474 48Z" fill="#00101c" stroke="#00101c"></path><path d="M830 429L810 353L795 380Z" fill="#246688" stroke="#246688"></path><path d="M795 380L810 353L752 301Z" fill="#277297" stroke="#277297"></path><path d="M833 297L802 219L787 243Z" fill="#00101c" stroke="#00101c"></path><path d="M787 243L802 219L745 194Z" fill="#205a7a" stroke="#205a7a"></path><path d="M701 139L716 78L655 130Z" fill="#277297" stroke="#277297"></path><path d="M567 0L558 45L611 64Z" fill="#081a28" stroke="#081a28"></path><path d="M567 0L566 0L558 45Z" fill="#112e42" stroke="#112e42"></path><path d="M512 20L566 0L444 0Z" fill="#1d4e6b" stroke="#1d4e6b"></path><path d="M567 0L611 64L640 0Z" fill="#112e42" stroke="#112e42"></path><path d="M782 152L752 119L745 194Z" fill="#205a7a" stroke="#205a7a"></path><path d="M640 0L611 64L644 84Z" fill="#15384f" stroke="#15384f"></path><path d="M752 119L716 78L701 139Z" fill="#19435d" stroke="#19435d"></path><path d="M810 353L821 309L752 301Z" fill="#297ea6" stroke="#297ea6"></path><path d="M810 190L782 152L745 194Z" fill="#1d4e6b" stroke="#1d4e6b"></path><path d="M752 119L761 89L716 78Z" fill="#0c2435" stroke="#0c2435"></path><path d="M444 0L394 0L403 46Z" fill="#297ea6" stroke="#297ea6"></path><path d="M218 100L211 152L268 124Z" fill="#277297" stroke="#277297"></path><path d="M259 540L270 540L310 493Z" fill="#0c2435" stroke="#0c2435"></path><path d="M251 62L288 110L342 54Z" fill="#15384f" stroke="#15384f"></path><path d="M268 124L211 152L249 184Z" fill="#1d4e6b" stroke="#1d4e6b"></path><path d="M851 192L810 190L802 219Z" fill="#00101c" stroke="#00101c"></path><path d="M802 219L810 190L745 194Z" fill="#277297" stroke="#277297"></path><path d="M173 210L240 259L249 184Z" fill="#0c2435" stroke="#0c2435"></path><path d="M192 285L152 360L250 345Z" fill="#0c2435" stroke="#0c2435"></path><path d="M860 324L833 297L821 309Z" fill="#081a28" stroke="#081a28"></path><path d="M821 309L833 297L787 243Z" fill="#277297" stroke="#277297"></path><path d="M860 324L821 309L810 353Z" fill="#15384f" stroke="#15384f"></path><path d="M220 505L259 540L310 493Z" fill="#00101c" stroke="#00101c"></path><path d="M220 505L310 493L226 460Z" fill="#081a28" stroke="#081a28"></path><path d="M810 190L803 162L782 152Z" fill="#19435d" stroke="#19435d"></path><path d="M782 152L761 89L752 119Z" fill="#19435d" stroke="#19435d"></path><path d="M677 540L744 540L681 511Z" fill="#0c2435" stroke="#0c2435"></path><path d="M780 427L830 429L795 380Z" fill="#081a28" stroke="#081a28"></path><path d="M709 0L640 0L644 84Z" fill="#1d4e6b" stroke="#1d4e6b"></path><path d="M709 0L644 84L716 78Z" fill="#297ea6" stroke="#297ea6"></path><path d="M787 65L761 89L799 74Z" fill="#19435d" stroke="#19435d"></path><path d="M177 169L173 210L249 184Z" fill="#1d4e6b" stroke="#1d4e6b"></path><path d="M181 458L226 460L215 435Z" fill="#1d4e6b" stroke="#1d4e6b"></path><path d="M181 458L220 505L226 460Z" fill="#0c2435" stroke="#0c2435"></path><path d="M744 540L786 502L738 464Z" fill="#277297" stroke="#277297"></path><path d="M761 89L740 62L716 78Z" fill="#0c2435" stroke="#0c2435"></path><path d="M394 0L347 0L403 46Z" fill="#19435d" stroke="#19435d"></path><path d="M752 540L786 502L744 540Z" fill="#00101c" stroke="#00101c"></path><path d="M297 0L251 62L342 54Z" fill="#205a7a" stroke="#205a7a"></path><path d="M211 152L177 169L249 184Z" fill="#205a7a" stroke="#205a7a"></path><path d="M251 62L218 100L268 124Z" fill="#246688" stroke="#246688"></path><path d="M161 123L177 169L211 152Z" fill="#15384f" stroke="#15384f"></path><path d="M829 432L830 429L780 427Z" fill="#246688" stroke="#246688"></path><path d="M828 455L829 432L780 427Z" fill="#277297" stroke="#277297"></path><path d="M144 293L192 285L170 269Z" fill="#246688" stroke="#246688"></path><path d="M144 293L152 360L192 285Z" fill="#246688" stroke="#246688"></path><path d="M144 293L170 269L136 287Z" fill="#1d4e6b" stroke="#1d4e6b"></path><path d="M159 438L181 458L213 419Z" fill="#277297" stroke="#277297"></path><path d="M136 287L170 269L118 216Z" fill="#277297" stroke="#277297"></path><path d="M786 502L828 455L780 427Z" fill="#1d4e6b" stroke="#1d4e6b"></path><path d="M829 432L887 426L830 429Z" fill="#0c2435" stroke="#0c2435"></path><path d="M883 387L860 324L810 353Z" fill="#00101c" stroke="#00101c"></path><path d="M851 192L833 150L810 190Z" fill="#081a28" stroke="#081a28"></path><path d="M810 190L833 150L803 162Z" fill="#15384f" stroke="#15384f"></path><path d="M883 387L810 353L830 429Z" fill="#1d4e6b" stroke="#1d4e6b"></path><path d="M118 216L170 269L173 210Z" fill="#297ea6" stroke="#297ea6"></path><path d="M100 320L122 376L152 360Z" fill="#277297" stroke="#277297"></path><path d="M152 360L159 438L213 419Z" fill="#15384f" stroke="#15384f"></path><path d="M181 458L183 524L220 505Z" fill="#246688" stroke="#246688"></path><path d="M122 376L159 438L152 360Z" fill="#19435d" stroke="#19435d"></path><path d="M120 173L154 191L177 169Z" fill="#297ea6" stroke="#297ea6"></path><path d="M177 169L154 191L173 210Z" fill="#15384f" stroke="#15384f"></path><path d="M851 192L802 219L833 297Z" fill="#1d4e6b" stroke="#1d4e6b"></path><path d="M803 162L833 150L782 152Z" fill="#00101c" stroke="#00101c"></path><path d="M724 0L709 0L740 62Z" fill="#205a7a" stroke="#205a7a"></path><path d="M347 0L297 0L342 54Z" fill="#205a7a" stroke="#205a7a"></path><path d="M251 62L224 62L218 100Z" fill="#0c2435" stroke="#0c2435"></path><path d="M256 0L224 62L251 62Z" fill="#277297" stroke="#277297"></path><path d="M218 100L170 115L211 152Z" fill="#19435d" stroke="#19435d"></path><path d="M892 286L851 192L833 297Z" fill="#246688" stroke="#246688"></path><path d="M740 62L709 0L716 78Z" fill="#15384f" stroke="#15384f"></path><path d="M787 65L740 62L761 89Z" fill="#297ea6" stroke="#297ea6"></path><path d="M799 74L761 89L782 152Z" fill="#0c2435" stroke="#0c2435"></path><path d="M833 150L799 74L782 152Z" fill="#19435d" stroke="#19435d"></path><path d="M780 0L724 0L740 62Z" fill="#00101c" stroke="#00101c"></path><path d="M297 0L269 5L251 62Z" fill="#297ea6" stroke="#297ea6"></path><path d="M780 0L740 62L787 65Z" fill="#205a7a" stroke="#205a7a"></path><path d="M168 69L218 100L224 62Z" fill="#19435d" stroke="#19435d"></path><path d="M168 69L170 115L218 100Z" fill="#081a28" stroke="#081a28"></path><path d="M105 480L183 524L181 458Z" fill="#15384f" stroke="#15384f"></path><path d="M220 505L181 540L259 540Z" fill="#112e42" stroke="#112e42"></path><path d="M100 320L152 360L144 293Z" fill="#112e42" stroke="#112e42"></path><path d="M129 540L181 540L183 524Z" fill="#081a28" stroke="#081a28"></path><path d="M156 67L161 123L170 115Z" fill="#205a7a" stroke="#205a7a"></path><path d="M170 115L161 123L211 152Z" fill="#246688" stroke="#246688"></path><path d="M154 191L118 216L173 210Z" fill="#1d4e6b" stroke="#1d4e6b"></path><path d="M136 287L100 320L144 293Z" fill="#277297" stroke="#277297"></path><path d="M851 192L861 170L833 150Z" fill="#15384f" stroke="#15384f"></path><path d="M833 150L855 69L799 74Z" fill="#297ea6" stroke="#297ea6"></path><path d="M882 198L861 170L851 192Z" fill="#205a7a" stroke="#205a7a"></path><path d="M887 426L883 387L830 429Z" fill="#277297" stroke="#277297"></path><path d="M860 324L892 286L833 297Z" fill="#112e42" stroke="#112e42"></path><path d="M297 0L258 0L269 5Z" fill="#00101c" stroke="#00101c"></path><path d="M269 5L256 0L251 62Z" fill="#15384f" stroke="#15384f"></path><path d="M907 286L892 286L860 324Z" fill="#19435d" stroke="#19435d"></path><path d="M120 173L118 216L154 191Z" fill="#1d4e6b" stroke="#1d4e6b"></path><path d="M258 0L256 0L269 5Z" fill="#19435d" stroke="#19435d"></path><path d="M105 480L181 458L159 438Z" fill="#246688" stroke="#246688"></path><path d="M183 524L181 540L220 505Z" fill="#297ea6" stroke="#297ea6"></path><path d="M892 286L882 198L851 192Z" fill="#0c2435" stroke="#0c2435"></path><path d="M849 59L787 65L799 74Z" fill="#15384f" stroke="#15384f"></path><path d="M91 263L100 320L136 287Z" fill="#1d4e6b" stroke="#1d4e6b"></path><path d="M122 376L103 424L159 438Z" fill="#246688" stroke="#246688"></path><path d="M131 128L177 169L161 123Z" fill="#277297" stroke="#277297"></path><path d="M131 128L120 173L177 169Z" fill="#277297" stroke="#277297"></path><path d="M118 216L91 263L136 287Z" fill="#19435d" stroke="#19435d"></path><path d="M828 455L887 426L829 432Z" fill="#205a7a" stroke="#205a7a"></path><path d="M960 349L907 286L860 324Z" fill="#1d4e6b" stroke="#1d4e6b"></path><path d="M903 466L887 426L828 455Z" fill="#205a7a" stroke="#205a7a"></path><path d="M838 540L828 455L786 502Z" fill="#297ea6" stroke="#297ea6"></path><path d="M925 276L907 286L960 307Z" fill="#1d4e6b" stroke="#1d4e6b"></path><path d="M892 286L925 276L882 198Z" fill="#297ea6" stroke="#297ea6"></path><path d="M158 0L168 69L224 62Z" fill="#277297" stroke="#277297"></path><path d="M752 540L838 540L786 502Z" fill="#277297" stroke="#277297"></path><path d="M156 67L131 128L161 123Z" fill="#297ea6" stroke="#297ea6"></path><path d="M79 244L118 216L80 214Z" fill="#112e42" stroke="#112e42"></path><path d="M79 244L91 263L118 216Z" fill="#297ea6" stroke="#297ea6"></path><path d="M80 383L122 376L100 320Z" fill="#277297" stroke="#277297"></path><path d="M80 383L103 424L122 376Z" fill="#112e42" stroke="#112e42"></path><path d="M855 69L833 150L921 113Z" fill="#0c2435" stroke="#0c2435"></path><path d="M829 0L780 0L787 65Z" fill="#112e42" stroke="#112e42"></path><path d="M168 69L156 67L170 115Z" fill="#00101c" stroke="#00101c"></path><path d="M158 0L156 67L168 69Z" fill="#1d4e6b" stroke="#1d4e6b"></path><path d="M838 540L883 515L828 455Z" fill="#19435d" stroke="#19435d"></path><path d="M80 214L118 216L72 189Z" fill="#112e42" stroke="#112e42"></path><path d="M91 263L67 324L100 320Z" fill="#0c2435" stroke="#0c2435"></path><path d="M118 216L120 173L72 189Z" fill="#0c2435" stroke="#0c2435"></path><path d="M960 307L907 286L960 349Z" fill="#246688" stroke="#246688"></path><path d="M907 286L925 276L892 286Z" fill="#19435d" stroke="#19435d"></path><path d="M861 57L855 69L889 59Z" fill="#15384f" stroke="#15384f"></path><path d="M67 324L80 383L100 320Z" fill="#112e42" stroke="#112e42"></path><path d="M855 69L921 113L889 59Z" fill="#277297" stroke="#277297"></path><path d="M855 69L849 59L799 74Z" fill="#205a7a" stroke="#205a7a"></path><path d="M72 189L120 173L82 129Z" fill="#15384f" stroke="#15384f"></path><path d="M103 424L105 480L159 438Z" fill="#081a28" stroke="#081a28"></path><path d="M71 467L105 480L103 424Z" fill="#081a28" stroke="#081a28"></path><path d="M883 515L903 466L828 455Z" fill="#15384f" stroke="#15384f"></path><path d="M887 426L928 434L883 387Z" fill="#081a28" stroke="#081a28"></path><path d="M62 245L67 324L91 263Z" fill="#0c2435" stroke="#0c2435"></path><path d="M62 245L91 263L79 244Z" fill="#297ea6" stroke="#297ea6"></path><path d="M852 540L883 515L838 540Z" fill="#1d4e6b" stroke="#1d4e6b"></path><path d="M105 480L129 540L183 524Z" fill="#297ea6" stroke="#297ea6"></path><path d="M921 113L861 170L882 198Z" fill="#246688" stroke="#246688"></path><path d="M855 69L861 57L849 59Z" fill="#19435d" stroke="#19435d"></path><path d="M849 59L829 0L787 65Z" fill="#19435d" stroke="#19435d"></path><path d="M57 243L62 245L80 214Z" fill="#1d4e6b" stroke="#1d4e6b"></path><path d="M80 214L62 245L79 244Z" fill="#205a7a" stroke="#205a7a"></path><path d="M49 325L80 383L67 324Z" fill="#19435d" stroke="#19435d"></path><path d="M52 429L72 424L80 383Z" fill="#00101c" stroke="#00101c"></path><path d="M80 383L72 424L103 424Z" fill="#112e42" stroke="#112e42"></path><path d="M105 480L87 489L129 540Z" fill="#246688" stroke="#246688"></path><path d="M82 129L120 173L131 128Z" fill="#297ea6" stroke="#297ea6"></path><path d="M960 433L928 434L960 474Z" fill="#15384f" stroke="#15384f"></path><path d="M903 466L928 434L887 426Z" fill="#00101c" stroke="#00101c"></path><path d="M72 189L57 243L80 214Z" fill="#205a7a" stroke="#205a7a"></path><path d="M62 245L49 325L67 324Z" fill="#246688" stroke="#246688"></path><path d="M960 238L936 197L925 276Z" fill="#246688" stroke="#246688"></path><path d="M925 276L936 197L882 198Z" fill="#00101c" stroke="#00101c"></path><path d="M71 467L87 489L105 480Z" fill="#0c2435" stroke="#0c2435"></path><path d="M861 57L829 0L849 59Z" fill="#297ea6" stroke="#297ea6"></path><path d="M57 243L49 325L62 245Z" fill="#19435d" stroke="#19435d"></path><path d="M72 424L71 467L103 424Z" fill="#19435d" stroke="#19435d"></path><path d="M90 64L82 129L131 128Z" fill="#15384f" stroke="#15384f"></path><path d="M0 270L49 325L57 243Z" fill="#15384f" stroke="#15384f"></path><path d="M52 429L71 467L72 424Z" fill="#205a7a" stroke="#205a7a"></path><path d="M960 349L860 324L883 387Z" fill="#081a28" stroke="#081a28"></path><path d="M256 0L158 0L224 62Z" fill="#112e42" stroke="#112e42"></path><path d="M156 67L90 64L131 128Z" fill="#15384f" stroke="#15384f"></path><path d="M156 0L123 43L156 67Z" fill="#00101c" stroke="#00101c"></path><path d="M158 0L156 0L156 67Z" fill="#00101c" stroke="#00101c"></path><path d="M928 434L960 349L883 387Z" fill="#00101c" stroke="#00101c"></path><path d="M921 113L833 150L861 170Z" fill="#277297" stroke="#277297"></path><path d="M861 57L878 0L829 0Z" fill="#00101c" stroke="#00101c"></path><path d="M0 391L52 429L80 383Z" fill="#205a7a" stroke="#205a7a"></path><path d="M960 164L921 113L936 197Z" fill="#297ea6" stroke="#297ea6"></path><path d="M936 197L921 113L882 198Z" fill="#1d4e6b" stroke="#1d4e6b"></path><path d="M960 307L960 238L925 276Z" fill="#205a7a" stroke="#205a7a"></path><path d="M960 238L960 227L936 197Z" fill="#19435d" stroke="#19435d"></path><path d="M960 227L960 219L936 197Z" fill="#205a7a" stroke="#205a7a"></path><path d="M960 474L928 434L903 466Z" fill="#19435d" stroke="#19435d"></path><path d="M928 434L960 433L960 349Z" fill="#0c2435" stroke="#0c2435"></path><path d="M919 540L928 518L883 515Z" fill="#205a7a" stroke="#205a7a"></path><path d="M883 515L928 518L903 466Z" fill="#19435d" stroke="#19435d"></path><path d="M98 0L90 64L123 43Z" fill="#277297" stroke="#277297"></path><path d="M123 43L90 64L156 67Z" fill="#15384f" stroke="#15384f"></path><path d="M0 219L57 243L72 189Z" fill="#297ea6" stroke="#297ea6"></path><path d="M852 540L919 540L883 515Z" fill="#277297" stroke="#277297"></path><path d="M39 540L87 489L13 504Z" fill="#112e42" stroke="#112e42"></path><path d="M39 540L80 540L87 489Z" fill="#112e42" stroke="#112e42"></path><path d="M87 489L80 540L129 540Z" fill="#00101c" stroke="#00101c"></path><path d="M921 113L906 50L889 59Z" fill="#297ea6" stroke="#297ea6"></path><path d="M889 59L878 0L861 57Z" fill="#081a28" stroke="#081a28"></path><path d="M960 81L906 50L921 113Z" fill="#1d4e6b" stroke="#1d4e6b"></path><path d="M960 219L960 164L936 197Z" fill="#00101c" stroke="#00101c"></path><path d="M74 0L75 72L90 64Z" fill="#0c2435" stroke="#0c2435"></path><path d="M90 64L75 72L82 129Z" fill="#277297" stroke="#277297"></path><path d="M906 50L878 0L889 59Z" fill="#19435d" stroke="#19435d"></path><path d="M960 506L960 474L928 518Z" fill="#297ea6" stroke="#297ea6"></path><path d="M928 518L960 474L903 466Z" fill="#19435d" stroke="#19435d"></path><path d="M49 325L0 354L80 383Z" fill="#112e42" stroke="#112e42"></path><path d="M13 504L87 489L71 467Z" fill="#081a28" stroke="#081a28"></path><path d="M0 270L0 332L49 325Z" fill="#297ea6" stroke="#297ea6"></path><path d="M0 270L57 243L0 219Z" fill="#19435d" stroke="#19435d"></path><path d="M960 540L960 506L928 518Z" fill="#19435d" stroke="#19435d"></path><path d="M0 219L72 189L0 151Z" fill="#15384f" stroke="#15384f"></path><path d="M0 332L0 354L49 325Z" fill="#00101c" stroke="#00101c"></path><path d="M960 18L900 0L906 50Z" fill="#205a7a" stroke="#205a7a"></path><path d="M906 50L900 0L878 0Z" fill="#00101c" stroke="#00101c"></path><path d="M156 0L98 0L123 43Z" fill="#112e42" stroke="#112e42"></path><path d="M0 151L72 189L82 129Z" fill="#205a7a" stroke="#205a7a"></path><path d="M0 354L0 391L80 383Z" fill="#1d4e6b" stroke="#1d4e6b"></path><path d="M0 151L82 129L0 121Z" fill="#15384f" stroke="#15384f"></path><path d="M960 164L960 81L921 113Z" fill="#246688" stroke="#246688"></path><path d="M919 540L960 540L928 518Z" fill="#0c2435" stroke="#0c2435"></path><path d="M0 464L71 467L52 429Z" fill="#00101c" stroke="#00101c"></path><path d="M0 391L0 464L52 429Z" fill="#246688" stroke="#246688"></path><path d="M0 121L82 129L0 93Z" fill="#205a7a" stroke="#205a7a"></path><path d="M0 471L13 504L71 467Z" fill="#246688" stroke="#246688"></path><path d="M98 0L74 0L90 64Z" fill="#0c2435" stroke="#0c2435"></path><path d="M0 464L0 471L71 467Z" fill="#15384f" stroke="#15384f"></path><path d="M0 93L82 129L75 72Z" fill="#1d4e6b" stroke="#1d4e6b"></path><path d="M960 81L960 18L906 50Z" fill="#19435d" stroke="#19435d"></path><path d="M18 27L0 93L75 72Z" fill="#081a28" stroke="#081a28"></path><path d="M0 471L0 540L13 504Z" fill="#205a7a" stroke="#205a7a"></path><path d="M13 504L0 540L39 540Z" fill="#0c2435" stroke="#0c2435"></path><path d="M960 18L960 0L900 0Z" fill="#19435d" stroke="#19435d"></path><path d="M74 0L18 27L75 72Z" fill="#1d4e6b" stroke="#1d4e6b"></path><path d="M0 0L0 27L18 27Z" fill="#1d4e6b" stroke="#1d4e6b"></path><path d="M18 27L0 27L0 93Z" fill="#0c2435" stroke="#0c2435"></path><path d="M74 0L0 0L18 27Z" fill="#205a7a" stroke="#205a7a"></path></g></svg>